<svg width="12" height="12" viewBox="0 0 12 12" fill="none" xmlns="http://www.w3.org/2000/svg">
<path d="M11.2502 0.758276C11.1731 0.681023 11.0815 0.619733 10.9807 0.577915C10.8799 0.536097 10.7718 0.514572 10.6627 0.514572C10.5535 0.514572 10.4455 0.536097 10.3447 0.577915C10.2439 0.619733 10.1523 0.681023 10.0752 0.758276L6.00019 4.82494L1.92519 0.749942C1.84803 0.67279 1.75644 0.61159 1.65564 0.569836C1.55484 0.528082 1.4468 0.506592 1.33769 0.506592C1.22858 0.506592 1.12054 0.528082 1.01973 0.569836C0.91893 0.61159 0.827338 0.67279 0.750186 0.749942C0.673035 0.827094 0.611835 0.918686 0.57008 1.01949C0.528326 1.12029 0.506836 1.22833 0.506836 1.33744C0.506836 1.44655 0.528326 1.55459 0.57008 1.6554C0.611835 1.7562 0.673035 1.84779 0.750186 1.92494L4.82519 5.99994L0.750186 10.0749C0.673035 10.1521 0.611835 10.2437 0.57008 10.3445C0.528326 10.4453 0.506836 10.5533 0.506836 10.6624C0.506836 10.7715 0.528326 10.8796 0.57008 10.9804C0.611835 11.0812 0.673035 11.1728 0.750186 11.2499C0.827338 11.3271 0.91893 11.3883 1.01973 11.43C1.12054 11.4718 1.22858 11.4933 1.33769 11.4933C1.4468 11.4933 1.55484 11.4718 1.65564 11.43C1.75644 11.3883 1.84803 11.3271 1.92519 11.2499L6.00019 7.17494L10.0752 11.2499C10.1523 11.3271 10.2439 11.3883 10.3447 11.43C10.4455 11.4718 10.5536 11.4933 10.6627 11.4933C10.7718 11.4933 10.8798 11.4718 10.9806 11.43C11.0814 11.3883 11.173 11.3271 11.2502 11.2499C11.3273 11.1728 11.3885 11.0812 11.4303 10.9804C11.472 10.8796 11.4935 10.7715 11.4935 10.6624C11.4935 10.5533 11.472 10.4453 11.4303 10.3445C11.3885 10.2437 11.3273 10.1521 11.2502 10.0749L7.17519 5.99994L11.2502 1.92494C11.5669 1.60828 11.5669 1.07494 11.2502 0.758276Z" fill="white"/>
</svg>
