<svg width="19" height="19" viewBox="0 0 19 19" fill="none" xmlns="http://www.w3.org/2000/svg">
<path fill-rule="evenodd" clip-rule="evenodd" d="M1.9 9.5C1.90014 8.03743 2.32229 6.60596 3.1158 5.37736C3.90931 4.14877 5.04047 3.17523 6.37356 2.57356C7.70664 1.9719 9.18502 1.76767 10.6313 1.98538C12.0776 2.20309 13.4303 2.83349 14.5272 3.80094C15.6241 4.76839 16.4185 6.0318 16.8152 7.43955C17.2118 8.84731 17.1939 10.3396 16.7634 11.7374C16.333 13.1352 15.5083 14.3791 14.3885 15.3199C13.2686 16.2606 11.9011 16.8583 10.45 17.0411V11.4H12.35C12.602 11.4 12.8436 11.2999 13.0218 11.1218C13.1999 10.9436 13.3 10.702 13.3 10.45C13.3 10.198 13.1999 9.95641 13.0218 9.77825C12.8436 9.60009 12.602 9.5 12.35 9.5H10.45V7.6C10.45 7.34804 10.5501 7.10641 10.7282 6.92825C10.9064 6.75009 11.148 6.65 11.4 6.65H11.875C12.127 6.65 12.3686 6.54991 12.5468 6.37175C12.7249 6.19359 12.825 5.95196 12.825 5.7C12.825 5.44804 12.7249 5.20641 12.5468 5.02825C12.3686 4.85009 12.127 4.75 11.875 4.75H11.4C10.6441 4.75 9.91922 5.05027 9.38475 5.58475C8.85027 6.11922 8.55 6.84413 8.55 7.6V9.5H6.65C6.39804 9.5 6.15641 9.60009 5.97825 9.77825C5.80009 9.95641 5.7 10.198 5.7 10.45C5.7 10.702 5.80009 10.9436 5.97825 11.1218C6.15641 11.2999 6.39804 11.4 6.65 11.4H8.55V17.0411C6.71337 16.8095 5.02438 15.9156 3.8 14.5272C2.57563 13.1387 1.90003 11.3512 1.9 9.5ZM9.5 19C14.7469 19 19 14.7469 19 9.5C19 4.25315 14.7469 0 9.5 0C4.25315 0 0 4.25315 0 9.5C0 14.7469 4.25315 19 9.5 19Z" fill="#EC994B"/>
</svg>
