<svg width="11" height="13" viewBox="0 0 11 13" fill="none" xmlns="http://www.w3.org/2000/svg">
<path d="M5.10707 7.42863C4.64794 7.42863 4.19911 7.29248 3.81736 7.03739C3.4356 6.78231 3.13806 6.41975 2.96235 5.99557C2.78665 5.57138 2.74068 5.10462 2.83025 4.65431C2.91982 4.204 3.14092 3.79036 3.46558 3.4657C3.79023 3.14104 4.20387 2.91995 4.65419 2.83037C5.1045 2.7408 5.57126 2.78677 5.99545 2.96248C6.41963 3.13818 6.78219 3.43572 7.03727 3.81748C7.29235 4.19924 7.4285 4.64806 7.4285 5.1072C7.42777 5.72265 7.18295 6.31269 6.74776 6.74788C6.31257 7.18307 5.72253 7.42789 5.10707 7.42863ZM5.10707 3.71434C4.83159 3.71434 4.5623 3.79603 4.33324 3.94908C4.10419 4.10213 3.92566 4.31966 3.82024 4.57417C3.71482 4.82868 3.68724 5.10874 3.74098 5.37893C3.79472 5.64912 3.92738 5.8973 4.12218 6.0921C4.31697 6.28689 4.56515 6.41955 4.83534 6.47329C5.10553 6.52703 5.38559 6.49945 5.6401 6.39403C5.89461 6.28861 6.11214 6.11008 6.26519 5.88103C6.41824 5.65197 6.49993 5.38268 6.49993 5.1072C6.49956 4.7379 6.3527 4.38384 6.09157 4.1227C5.83043 3.86157 5.47637 3.71471 5.10707 3.71434Z" fill="#EC994B"/>
<path d="M5.10715 13L1.19043 8.38082C1.13601 8.31146 1.08215 8.24166 1.02886 8.17143C0.359818 7.29011 -0.00161627 6.21364 5.43348e-06 5.10714C5.43348e-06 3.75264 0.538078 2.45362 1.49585 1.49585C2.45363 0.538073 3.75265 0 5.10715 0C6.46165 0 7.76067 0.538073 8.71844 1.49585C9.67622 2.45362 10.2143 3.75264 10.2143 5.10714C10.2159 6.21314 9.85464 7.28912 9.1859 8.17004L9.18543 8.17143C9.18543 8.17143 9.04615 8.35436 9.02525 8.37896L5.10715 13ZM1.76986 7.61196C1.77079 7.61196 1.87851 7.75496 1.90311 7.78561L5.10715 11.5644L8.31536 7.7805C8.33579 7.75496 8.44443 7.61104 8.4449 7.61057C8.99143 6.89052 9.28679 6.01112 9.28572 5.10714C9.28572 3.99892 8.84548 2.93608 8.06184 2.15245C7.27821 1.36881 6.21537 0.928571 5.10715 0.928571C3.99892 0.928571 2.93609 1.36881 2.15245 2.15245C1.36882 2.93608 0.928577 3.99892 0.928577 5.10714C0.927603 6.01168 1.22283 6.89158 1.76986 7.61196Z" fill="#EC994B"/>
</svg>
