<svg width="31" height="31" viewBox="0 0 31 31" fill="none" xmlns="http://www.w3.org/2000/svg">
<path fill-rule="evenodd" clip-rule="evenodd" d="M27.2543 10.3382C27.1832 10.333 27.1044 10.333 27.0218 10.333H23.7603C21.0892 10.333 18.8042 12.4358 18.8042 15.1768C18.8042 17.9177 21.0905 20.0205 23.7603 20.0205H27.0218C27.1044 20.0205 27.1832 20.0205 27.2569 20.0153C27.8059 19.9822 28.3241 19.7507 28.715 19.3638C29.1059 18.9769 29.3429 18.4611 29.3817 17.9125C29.3868 17.835 29.3868 17.751 29.3868 17.6735V12.68C29.3868 12.6025 29.3868 12.5185 29.3817 12.441C29.3429 11.8924 29.1059 11.3766 28.715 10.9897C28.3241 10.6028 27.8059 10.3713 27.2569 10.3382M23.4749 16.4684C24.162 16.4684 24.7187 15.8898 24.7187 15.1768C24.7187 14.4638 24.162 13.8851 23.4749 13.8851C22.7864 13.8851 22.2297 14.4638 22.2297 15.1768C22.2297 15.8898 22.7864 16.4684 23.4749 16.4684Z" fill="#EC994B"/>
<path fill-rule="evenodd" clip-rule="evenodd" d="M27.0192 21.9583C27.0639 21.9565 27.1083 21.9653 27.149 21.9839C27.1896 22.0025 27.2253 22.0305 27.2531 22.0654C27.2809 22.1004 27.3001 22.1415 27.309 22.1853C27.318 22.229 27.3165 22.2743 27.3047 22.3174C27.0464 23.2371 26.6343 24.0224 25.9743 24.6812C25.0068 25.6499 23.781 26.0775 22.2672 26.2815C20.7947 26.4792 18.9153 26.4792 16.5412 26.4792H13.8132C11.4392 26.4792 9.5585 26.4792 8.08729 26.2815C6.57345 26.0775 5.34766 25.6486 4.3802 24.6825C3.41404 23.715 2.9852 22.4892 2.78112 20.9754C2.5835 19.5029 2.5835 17.6235 2.5835 15.2494V15.1047C2.5835 12.7307 2.5835 10.85 2.78112 9.3775C2.9852 7.86367 3.41404 6.63787 4.3802 5.67042C5.34766 4.70425 6.57345 4.27542 8.08729 4.07133C9.55979 3.875 11.4392 3.875 13.8132 3.875H16.5412C18.9153 3.875 20.796 3.875 22.2672 4.07263C23.781 4.27671 25.0068 4.70554 25.9743 5.67171C26.6343 6.33304 27.0464 7.11708 27.3047 8.03675C27.3165 8.07985 27.318 8.12513 27.309 8.16891C27.3001 8.2127 27.2809 8.25375 27.2531 8.28873C27.2253 8.32371 27.1896 8.35164 27.149 8.37025C27.1083 8.38886 27.0639 8.39763 27.0192 8.39583H23.7591C20.0946 8.39583 16.8655 11.2892 16.8655 15.1771C16.8655 19.065 20.0946 21.9583 23.7591 21.9583H27.0192ZM7.42725 9.04167C7.17032 9.04167 6.92391 9.14373 6.74224 9.32541C6.56056 9.50708 6.4585 9.75349 6.4585 10.0104C6.4585 10.2673 6.56056 10.5137 6.74224 10.6954C6.92391 10.8771 7.17032 10.9792 7.42725 10.9792H12.5939C12.8508 10.9792 13.0972 10.8771 13.2789 10.6954C13.4606 10.5137 13.5627 10.2673 13.5627 10.0104C13.5627 9.75349 13.4606 9.50708 13.2789 9.32541C13.0972 9.14373 12.8508 9.04167 12.5939 9.04167H7.42725Z" fill="#EC994B"/>
</svg>
